<mxfile host="app.diagrams.net" modified="2022-04-11T17:25:50.486Z" agent="5.0 (Windows NT 10.0; Win64; x64) AppleWebKit/537.36 (KHTML, like Gecko) Chrome/100.0.4896.75 Safari/537.36" etag="C67gajF16MqTq8IObLub" version="17.4.2" type="github">
  <diagram id="QgEiLKrSvVICeqtT1u2R" name="Page-1">
    <mxGraphModel dx="782" dy="1605" grid="1" gridSize="10" guides="1" tooltips="1" connect="1" arrows="1" fold="1" page="1" pageScale="1" pageWidth="827" pageHeight="1169" math="0" shadow="0">
      <root>
        <mxCell id="0" />
        <mxCell id="1" parent="0" />
        <mxCell id="H7Eiv9jxb8CIly3ZrgXF-3" value="" style="edgeStyle=orthogonalEdgeStyle;rounded=0;orthogonalLoop=1;jettySize=auto;html=1;" parent="1" source="H7Eiv9jxb8CIly3ZrgXF-1" target="H7Eiv9jxb8CIly3ZrgXF-2" edge="1">
          <mxGeometry relative="1" as="geometry" />
        </mxCell>
        <mxCell id="H7Eiv9jxb8CIly3ZrgXF-1" value="&lt;span style=&quot;color: rgb(77 , 77 , 77) ; font-size: 10.3604pt&quot;&gt;AnnotationConfigApplicationContext&lt;/span&gt;" style="rounded=0;whiteSpace=wrap;html=1;" parent="1" vertex="1">
          <mxGeometry x="20" y="80" width="280" height="50" as="geometry" />
        </mxCell>
        <mxCell id="H7Eiv9jxb8CIly3ZrgXF-5" value="" style="edgeStyle=orthogonalEdgeStyle;rounded=0;orthogonalLoop=1;jettySize=auto;html=1;fontColor=#000000;" parent="1" source="H7Eiv9jxb8CIly3ZrgXF-2" target="H7Eiv9jxb8CIly3ZrgXF-4" edge="1">
          <mxGeometry relative="1" as="geometry" />
        </mxCell>
        <mxCell id="H7Eiv9jxb8CIly3ZrgXF-2" value="构造函数&lt;br&gt;&lt;span style=&quot;font-size: 13.8139px&quot;&gt;AnnotationConfigApplicationContext（&lt;/span&gt;&lt;span style=&quot;font-family: &amp;#34;consolas&amp;#34; ; font-size: 9.8pt&quot;&gt;Class&amp;lt;?&amp;gt;... annotatedClasses）&lt;/span&gt;" style="whiteSpace=wrap;html=1;rounded=0;" parent="1" vertex="1">
          <mxGeometry x="40" y="190" width="240" height="55" as="geometry" />
        </mxCell>
        <mxCell id="H7Eiv9jxb8CIly3ZrgXF-7" value="" style="edgeStyle=orthogonalEdgeStyle;rounded=0;orthogonalLoop=1;jettySize=auto;html=1;fontColor=#000000;entryX=0;entryY=0.5;entryDx=0;entryDy=0;" parent="1" source="H7Eiv9jxb8CIly3ZrgXF-4" target="H7Eiv9jxb8CIly3ZrgXF-6" edge="1">
          <mxGeometry relative="1" as="geometry" />
        </mxCell>
        <mxCell id="H7Eiv9jxb8CIly3ZrgXF-9" value="" style="edgeStyle=orthogonalEdgeStyle;rounded=0;orthogonalLoop=1;jettySize=auto;html=1;fontColor=#000000;entryX=0;entryY=0.5;entryDx=0;entryDy=0;" parent="1" source="H7Eiv9jxb8CIly3ZrgXF-4" target="H7Eiv9jxb8CIly3ZrgXF-8" edge="1">
          <mxGeometry relative="1" as="geometry" />
        </mxCell>
        <mxCell id="H7Eiv9jxb8CIly3ZrgXF-12" value="" style="edgeStyle=orthogonalEdgeStyle;rounded=0;orthogonalLoop=1;jettySize=auto;html=1;fontColor=#000000;entryX=0;entryY=0.5;entryDx=0;entryDy=0;" parent="1" source="H7Eiv9jxb8CIly3ZrgXF-4" target="H7Eiv9jxb8CIly3ZrgXF-11" edge="1">
          <mxGeometry relative="1" as="geometry" />
        </mxCell>
        <mxCell id="H7Eiv9jxb8CIly3ZrgXF-14" value="" style="edgeStyle=orthogonalEdgeStyle;rounded=0;orthogonalLoop=1;jettySize=auto;html=1;fontColor=#000000;" parent="1" source="H7Eiv9jxb8CIly3ZrgXF-4" target="H7Eiv9jxb8CIly3ZrgXF-13" edge="1">
          <mxGeometry relative="1" as="geometry" />
        </mxCell>
        <mxCell id="H7Eiv9jxb8CIly3ZrgXF-16" value="" style="edgeStyle=orthogonalEdgeStyle;rounded=0;orthogonalLoop=1;jettySize=auto;html=1;fontColor=#000000;" parent="1" source="H7Eiv9jxb8CIly3ZrgXF-4" target="H7Eiv9jxb8CIly3ZrgXF-15" edge="1">
          <mxGeometry relative="1" as="geometry" />
        </mxCell>
        <mxCell id="H7Eiv9jxb8CIly3ZrgXF-18" value="" style="edgeStyle=orthogonalEdgeStyle;rounded=0;orthogonalLoop=1;jettySize=auto;html=1;fontColor=#000000;entryX=0;entryY=0.5;entryDx=0;entryDy=0;" parent="1" source="H7Eiv9jxb8CIly3ZrgXF-4" target="H7Eiv9jxb8CIly3ZrgXF-17" edge="1">
          <mxGeometry relative="1" as="geometry" />
        </mxCell>
        <mxCell id="H7Eiv9jxb8CIly3ZrgXF-20" value="" style="edgeStyle=orthogonalEdgeStyle;rounded=0;orthogonalLoop=1;jettySize=auto;html=1;fontColor=#000000;entryX=0;entryY=0.5;entryDx=0;entryDy=0;" parent="1" source="H7Eiv9jxb8CIly3ZrgXF-4" target="H7Eiv9jxb8CIly3ZrgXF-19" edge="1">
          <mxGeometry relative="1" as="geometry" />
        </mxCell>
        <mxCell id="H7Eiv9jxb8CIly3ZrgXF-22" value="" style="edgeStyle=orthogonalEdgeStyle;rounded=0;orthogonalLoop=1;jettySize=auto;html=1;fontColor=#000000;entryX=0;entryY=0.5;entryDx=0;entryDy=0;" parent="1" source="H7Eiv9jxb8CIly3ZrgXF-4" target="H7Eiv9jxb8CIly3ZrgXF-21" edge="1">
          <mxGeometry relative="1" as="geometry" />
        </mxCell>
        <mxCell id="H7Eiv9jxb8CIly3ZrgXF-25" value="" style="edgeStyle=orthogonalEdgeStyle;rounded=0;orthogonalLoop=1;jettySize=auto;html=1;fontColor=#000000;entryX=0;entryY=0.5;entryDx=0;entryDy=0;" parent="1" source="H7Eiv9jxb8CIly3ZrgXF-4" target="H7Eiv9jxb8CIly3ZrgXF-24" edge="1">
          <mxGeometry relative="1" as="geometry" />
        </mxCell>
        <mxCell id="H7Eiv9jxb8CIly3ZrgXF-27" value="" style="edgeStyle=orthogonalEdgeStyle;rounded=0;orthogonalLoop=1;jettySize=auto;html=1;fontColor=#000000;entryX=0;entryY=0.5;entryDx=0;entryDy=0;" parent="1" source="H7Eiv9jxb8CIly3ZrgXF-4" target="H7Eiv9jxb8CIly3ZrgXF-26" edge="1">
          <mxGeometry relative="1" as="geometry" />
        </mxCell>
        <mxCell id="H7Eiv9jxb8CIly3ZrgXF-31" value="" style="edgeStyle=orthogonalEdgeStyle;rounded=0;orthogonalLoop=1;jettySize=auto;html=1;fontColor=#000000;entryX=0;entryY=0.5;entryDx=0;entryDy=0;" parent="1" source="H7Eiv9jxb8CIly3ZrgXF-4" target="H7Eiv9jxb8CIly3ZrgXF-30" edge="1">
          <mxGeometry relative="1" as="geometry" />
        </mxCell>
        <mxCell id="H7Eiv9jxb8CIly3ZrgXF-33" value="" style="edgeStyle=orthogonalEdgeStyle;rounded=0;orthogonalLoop=1;jettySize=auto;html=1;fontColor=#000000;entryX=0;entryY=0.5;entryDx=0;entryDy=0;" parent="1" source="H7Eiv9jxb8CIly3ZrgXF-4" target="H7Eiv9jxb8CIly3ZrgXF-32" edge="1">
          <mxGeometry relative="1" as="geometry" />
        </mxCell>
        <mxCell id="H7Eiv9jxb8CIly3ZrgXF-4" value="IOC容器刷新接口AbstractApplicationContext#refresh()" style="whiteSpace=wrap;html=1;rounded=0;fillColor=#f8cecc;strokeColor=#b85450;" parent="1" vertex="1">
          <mxGeometry x="60" y="322.5" width="200" height="60" as="geometry" />
        </mxCell>
        <mxCell id="H7Eiv9jxb8CIly3ZrgXF-6" value="&lt;pre style=&quot;font-family: &amp;#34;consolas&amp;#34; ; font-size: 9.8pt&quot;&gt;&lt;span style=&quot;background-color: rgb(255 , 255 , 255)&quot;&gt;prepareRefresh()&lt;/span&gt;&lt;/pre&gt;" style="whiteSpace=wrap;html=1;rounded=0;" parent="1" vertex="1">
          <mxGeometry x="430" y="30" width="340" height="60" as="geometry" />
        </mxCell>
        <mxCell id="H7Eiv9jxb8CIly3ZrgXF-8" value="&lt;pre style=&quot;font-family: &amp;#34;consolas&amp;#34; ; font-size: 9.8pt&quot;&gt;&lt;span style=&quot;background-color: rgb(255 , 255 , 255)&quot;&gt;obtainFreshBeanFactory&lt;/span&gt;&lt;/pre&gt;" style="whiteSpace=wrap;html=1;rounded=0;" parent="1" vertex="1">
          <mxGeometry x="430" y="110" width="340" height="60" as="geometry" />
        </mxCell>
        <mxCell id="H7Eiv9jxb8CIly3ZrgXF-11" value="&lt;pre style=&quot;font-family: &amp;#34;consolas&amp;#34; ; font-size: 9.8pt&quot;&gt;&lt;span style=&quot;background-color: rgb(255 , 255 , 255)&quot;&gt;prepareBeanFactory(beanFactory)&lt;/span&gt;&lt;/pre&gt;" style="whiteSpace=wrap;html=1;rounded=0;" parent="1" vertex="1">
          <mxGeometry x="430" y="185" width="340" height="60" as="geometry" />
        </mxCell>
        <mxCell id="H7Eiv9jxb8CIly3ZrgXF-13" value="&lt;pre style=&quot;font-family: &amp;#34;consolas&amp;#34; ; font-size: 9.8pt&quot;&gt;&lt;pre style=&quot;font-family: &amp;#34;arial&amp;#34; ; font-size: 9.8pt&quot;&gt;&lt;span style=&quot;background-color: rgb(255 , 255 , 255) ; font-family: &amp;#34;consolas&amp;#34; ; font-size: 9.8pt ; white-space: normal&quot;&gt;postProcessBeanFactory(beanFactory)&lt;/span&gt;&lt;br&gt;&lt;/pre&gt;&lt;/pre&gt;" style="whiteSpace=wrap;html=1;rounded=0;" parent="1" vertex="1">
          <mxGeometry x="430" y="280" width="340" height="60" as="geometry" />
        </mxCell>
        <mxCell id="A_nBl0eGspFHgRM14m2u-6" style="edgeStyle=orthogonalEdgeStyle;rounded=0;orthogonalLoop=1;jettySize=auto;html=1;entryX=0;entryY=0.5;entryDx=0;entryDy=0;fontColor=#000000;" parent="1" source="H7Eiv9jxb8CIly3ZrgXF-15" target="A_nBl0eGspFHgRM14m2u-1" edge="1">
          <mxGeometry relative="1" as="geometry" />
        </mxCell>
        <mxCell id="H7Eiv9jxb8CIly3ZrgXF-15" value="&lt;pre style=&quot;font-family: &amp;#34;consolas&amp;#34; ; font-size: 9.8pt&quot;&gt;&lt;pre style=&quot;font-family: &amp;#34;arial&amp;#34; ; font-size: 9.8pt&quot;&gt;&lt;span style=&quot;background-color: rgb(255 , 255 , 255)&quot;&gt;调用我们的&lt;span style=&quot;font-family: &amp;#34;consolas&amp;#34;&quot;&gt;bean&lt;/span&gt;工厂的后置处理器&lt;/span&gt;&lt;/pre&gt;&lt;pre style=&quot;font-family: &amp;#34;arial&amp;#34; ; font-size: 9.8pt&quot;&gt;invokeBeanFactoryPostProcessors(beanFactory)&lt;/pre&gt;&lt;/pre&gt;" style="whiteSpace=wrap;html=1;rounded=0;fillColor=#ffe6cc;strokeColor=#d79b00;" parent="1" vertex="1">
          <mxGeometry x="430" y="382.5" width="340" height="60" as="geometry" />
        </mxCell>
        <mxCell id="H7Eiv9jxb8CIly3ZrgXF-17" value="&lt;pre style=&quot;font-family: &amp;#34;consolas&amp;#34; ; font-size: 9.8pt&quot;&gt;&lt;span style=&quot;background-color: rgb(255 , 206 , 159)&quot;&gt;registerBeanPostProcessors(beanFactory)&lt;/span&gt;&lt;/pre&gt;" style="whiteSpace=wrap;html=1;rounded=0;fillColor=#ffe6cc;strokeColor=#d79b00;" parent="1" vertex="1">
          <mxGeometry x="430" y="470" width="340" height="60" as="geometry" />
        </mxCell>
        <mxCell id="H7Eiv9jxb8CIly3ZrgXF-19" value="&lt;pre style=&quot;font-family: &amp;#34;consolas&amp;#34; ; font-size: 9.8pt&quot;&gt;&lt;span style=&quot;background-color: rgb(255 , 255 , 255)&quot;&gt;initMessageSource()&lt;/span&gt;&lt;/pre&gt;" style="whiteSpace=wrap;html=1;rounded=0;" parent="1" vertex="1">
          <mxGeometry x="430" y="560" width="340" height="60" as="geometry" />
        </mxCell>
        <mxCell id="H7Eiv9jxb8CIly3ZrgXF-21" value="&lt;pre style=&quot;font-family: &amp;#34;consolas&amp;#34; ; font-size: 9.8pt&quot;&gt;&lt;span style=&quot;background-color: rgb(255 , 255 , 255)&quot;&gt;initApplicationEventMulticaster()&lt;/span&gt;&lt;/pre&gt;" style="whiteSpace=wrap;html=1;rounded=0;" parent="1" vertex="1">
          <mxGeometry x="430" y="650" width="340" height="60" as="geometry" />
        </mxCell>
        <mxCell id="H7Eiv9jxb8CIly3ZrgXF-24" value="&lt;pre style=&quot;font-family: &amp;#34;consolas&amp;#34; ; font-size: 9.8pt&quot;&gt;&lt;span style=&quot;background-color: rgb(255 , 255 , 255)&quot;&gt;onRefresh()&lt;/span&gt;&lt;/pre&gt;" style="whiteSpace=wrap;html=1;rounded=0;" parent="1" vertex="1">
          <mxGeometry x="430" y="760" width="340" height="60" as="geometry" />
        </mxCell>
        <mxCell id="H7Eiv9jxb8CIly3ZrgXF-26" value="&lt;pre style=&quot;font-family: &amp;#34;consolas&amp;#34; ; font-size: 9.8pt&quot;&gt;&lt;span style=&quot;background-color: rgb(255 , 255 , 255)&quot;&gt;registerListeners()&lt;/span&gt;&lt;/pre&gt;" style="whiteSpace=wrap;html=1;rounded=0;" parent="1" vertex="1">
          <mxGeometry x="430" y="860" width="340" height="60" as="geometry" />
        </mxCell>
        <mxCell id="H7Eiv9jxb8CIly3ZrgXF-30" value="&lt;pre style=&quot;font-family: &amp;#34;consolas&amp;#34; ; font-size: 9.8pt&quot;&gt;&lt;span style=&quot;background-color: rgb(255 , 255 , 255)&quot;&gt;finishBeanFactoryInitialization(beanFactory)&lt;/span&gt;&lt;/pre&gt;" style="whiteSpace=wrap;html=1;rounded=0;" parent="1" vertex="1">
          <mxGeometry x="430" y="990" width="340" height="60" as="geometry" />
        </mxCell>
        <mxCell id="H7Eiv9jxb8CIly3ZrgXF-32" value="&lt;pre style=&quot;font-family: &amp;#34;consolas&amp;#34; ; font-size: 9.8pt&quot;&gt;&lt;span style=&quot;background-color: rgb(255 , 255 , 255)&quot;&gt;finishRefresh()&lt;/span&gt;&lt;/pre&gt;" style="whiteSpace=wrap;html=1;rounded=0;" parent="1" vertex="1">
          <mxGeometry x="430" y="1109" width="350" height="60" as="geometry" />
        </mxCell>
        <mxCell id="jY-CzSJwW7g6p9AGMAmo-16" style="edgeStyle=orthogonalEdgeStyle;rounded=0;orthogonalLoop=1;jettySize=auto;html=1;entryX=0;entryY=0.5;entryDx=0;entryDy=0;" edge="1" parent="1" source="A_nBl0eGspFHgRM14m2u-1" target="jY-CzSJwW7g6p9AGMAmo-10">
          <mxGeometry relative="1" as="geometry" />
        </mxCell>
        <mxCell id="jY-CzSJwW7g6p9AGMAmo-17" value="bean定义的加载" style="edgeLabel;html=1;align=center;verticalAlign=middle;resizable=0;points=[];" vertex="1" connectable="0" parent="jY-CzSJwW7g6p9AGMAmo-16">
          <mxGeometry x="-0.1944" y="2" relative="1" as="geometry">
            <mxPoint y="1" as="offset" />
          </mxGeometry>
        </mxCell>
        <mxCell id="A_nBl0eGspFHgRM14m2u-1" value="&lt;pre style=&quot;font-family: &amp;#34;consolas&amp;#34; ; font-size: 9.8pt&quot;&gt;&lt;span style=&quot;background-color: rgb(255 , 255 , 255)&quot;&gt;PostProcessorRegistrationDelegate&lt;/span&gt;&lt;/pre&gt;&lt;pre style=&quot;font-family: &amp;#34;consolas&amp;#34; ; font-size: 9.8pt&quot;&gt;&lt;span style=&quot;background-color: rgb(255 , 255 , 255)&quot;&gt;#invokeBeanFactoryPostProcessor&lt;/span&gt;&lt;/pre&gt;" style="whiteSpace=wrap;html=1;rounded=0;" parent="1" vertex="1">
          <mxGeometry x="860" y="382.5" width="320" height="60" as="geometry" />
        </mxCell>
        <mxCell id="A_nBl0eGspFHgRM14m2u-3" value="ConfigurationClassPostProcessor&lt;br&gt;#postProcessBeanDefinitionRegistry" style="whiteSpace=wrap;html=1;rounded=0;" parent="1" vertex="1">
          <mxGeometry x="1780" y="382.5" width="205" height="60" as="geometry" />
        </mxCell>
        <mxCell id="jY-CzSJwW7g6p9AGMAmo-3" value="" style="edgeStyle=orthogonalEdgeStyle;rounded=0;orthogonalLoop=1;jettySize=auto;html=1;" edge="1" parent="1" source="jY-CzSJwW7g6p9AGMAmo-1" target="jY-CzSJwW7g6p9AGMAmo-2">
          <mxGeometry relative="1" as="geometry" />
        </mxCell>
        <mxCell id="jY-CzSJwW7g6p9AGMAmo-1" value="&lt;span style=&quot;box-sizing: border-box ; font-weight: 600 ; color: rgb(64 , 64 , 64) ; font-family: , &amp;#34;blinkmacsystemfont&amp;#34; , &amp;#34;apple color emoji&amp;#34; , &amp;#34;segoe ui emoji&amp;#34; , &amp;#34;segoe ui symbol&amp;#34; , &amp;#34;segoe ui&amp;#34; , &amp;#34;pingfang sc&amp;#34; , &amp;#34;hiragino sans gb&amp;#34; , &amp;#34;microsoft yahei&amp;#34; , &amp;#34;helvetica neue&amp;#34; , &amp;#34;helvetica&amp;#34; , &amp;#34;arial&amp;#34; , sans-serif ; font-size: 16px ; background-color: rgb(250 , 250 , 250)&quot;&gt;BeanFactoryPostProcessor&lt;/span&gt;" style="rounded=0;whiteSpace=wrap;html=1;" vertex="1" parent="1">
          <mxGeometry x="160" y="-240" width="220" height="60" as="geometry" />
        </mxCell>
        <mxCell id="jY-CzSJwW7g6p9AGMAmo-5" value="" style="edgeStyle=orthogonalEdgeStyle;rounded=0;orthogonalLoop=1;jettySize=auto;html=1;" edge="1" parent="1" source="jY-CzSJwW7g6p9AGMAmo-2" target="jY-CzSJwW7g6p9AGMAmo-4">
          <mxGeometry relative="1" as="geometry" />
        </mxCell>
        <mxCell id="jY-CzSJwW7g6p9AGMAmo-2" value="&lt;span style=&quot;box-sizing: border-box ; font-weight: 600 ; color: rgb(64 , 64 , 64) ; font-family: , &amp;#34;blinkmacsystemfont&amp;#34; , &amp;#34;apple color emoji&amp;#34; , &amp;#34;segoe ui emoji&amp;#34; , &amp;#34;segoe ui symbol&amp;#34; , &amp;#34;segoe ui&amp;#34; , &amp;#34;pingfang sc&amp;#34; , &amp;#34;hiragino sans gb&amp;#34; , &amp;#34;microsoft yahei&amp;#34; , &amp;#34;helvetica neue&amp;#34; , &amp;#34;helvetica&amp;#34; , &amp;#34;arial&amp;#34; , sans-serif ; font-size: 16px ; background-color: rgb(250 , 250 , 250)&quot;&gt;构造方法&lt;/span&gt;" style="whiteSpace=wrap;html=1;rounded=0;" vertex="1" parent="1">
          <mxGeometry x="480" y="-240" width="120" height="60" as="geometry" />
        </mxCell>
        <mxCell id="jY-CzSJwW7g6p9AGMAmo-7" value="" style="edgeStyle=orthogonalEdgeStyle;rounded=0;orthogonalLoop=1;jettySize=auto;html=1;" edge="1" parent="1" source="jY-CzSJwW7g6p9AGMAmo-4" target="jY-CzSJwW7g6p9AGMAmo-6">
          <mxGeometry relative="1" as="geometry" />
        </mxCell>
        <mxCell id="jY-CzSJwW7g6p9AGMAmo-4" value="&lt;span style=&quot;box-sizing: border-box ; font-weight: 600 ; color: rgb(64 , 64 , 64) ; font-family: , &amp;#34;blinkmacsystemfont&amp;#34; , &amp;#34;apple color emoji&amp;#34; , &amp;#34;segoe ui emoji&amp;#34; , &amp;#34;segoe ui symbol&amp;#34; , &amp;#34;segoe ui&amp;#34; , &amp;#34;pingfang sc&amp;#34; , &amp;#34;hiragino sans gb&amp;#34; , &amp;#34;microsoft yahei&amp;#34; , &amp;#34;helvetica neue&amp;#34; , &amp;#34;helvetica&amp;#34; , &amp;#34;arial&amp;#34; , sans-serif ; font-size: 16px ; background-color: rgb(250 , 250 , 250)&quot;&gt;BeanPostProcessor的&lt;/span&gt;&lt;span style=&quot;box-sizing: border-box ; font-weight: 600 ; color: rgb(64 , 64 , 64) ; font-family: , &amp;#34;blinkmacsystemfont&amp;#34; , &amp;#34;apple color emoji&amp;#34; , &amp;#34;segoe ui emoji&amp;#34; , &amp;#34;segoe ui symbol&amp;#34; , &amp;#34;segoe ui&amp;#34; , &amp;#34;pingfang sc&amp;#34; , &amp;#34;hiragino sans gb&amp;#34; , &amp;#34;microsoft yahei&amp;#34; , &amp;#34;helvetica neue&amp;#34; , &amp;#34;helvetica&amp;#34; , &amp;#34;arial&amp;#34; , sans-serif ; font-size: 16px ; background-color: rgb(250 , 250 , 250)&quot;&gt;before&lt;/span&gt;" style="whiteSpace=wrap;html=1;rounded=0;" vertex="1" parent="1">
          <mxGeometry x="680" y="-240" width="190" height="60" as="geometry" />
        </mxCell>
        <mxCell id="jY-CzSJwW7g6p9AGMAmo-9" value="" style="edgeStyle=orthogonalEdgeStyle;rounded=0;orthogonalLoop=1;jettySize=auto;html=1;" edge="1" parent="1" source="jY-CzSJwW7g6p9AGMAmo-6" target="jY-CzSJwW7g6p9AGMAmo-8">
          <mxGeometry relative="1" as="geometry" />
        </mxCell>
        <mxCell id="jY-CzSJwW7g6p9AGMAmo-6" value="&lt;span style=&quot;box-sizing: border-box ; font-weight: 600 ; color: rgb(64 , 64 , 64) ; font-family: , &amp;#34;blinkmacsystemfont&amp;#34; , &amp;#34;apple color emoji&amp;#34; , &amp;#34;segoe ui emoji&amp;#34; , &amp;#34;segoe ui symbol&amp;#34; , &amp;#34;segoe ui&amp;#34; , &amp;#34;pingfang sc&amp;#34; , &amp;#34;hiragino sans gb&amp;#34; , &amp;#34;microsoft yahei&amp;#34; , &amp;#34;helvetica neue&amp;#34; , &amp;#34;helvetica&amp;#34; , &amp;#34;arial&amp;#34; , sans-serif ; font-size: 16px ; background-color: rgb(250 , 250 , 250)&quot;&gt;init-method&lt;/span&gt;" style="whiteSpace=wrap;html=1;rounded=0;" vertex="1" parent="1">
          <mxGeometry x="940" y="-240" width="120" height="60" as="geometry" />
        </mxCell>
        <mxCell id="jY-CzSJwW7g6p9AGMAmo-8" value="&lt;span style=&quot;box-sizing: border-box ; font-weight: 600 ; color: rgb(64 , 64 , 64) ; font-family: , &amp;#34;blinkmacsystemfont&amp;#34; , &amp;#34;apple color emoji&amp;#34; , &amp;#34;segoe ui emoji&amp;#34; , &amp;#34;segoe ui symbol&amp;#34; , &amp;#34;segoe ui&amp;#34; , &amp;#34;pingfang sc&amp;#34; , &amp;#34;hiragino sans gb&amp;#34; , &amp;#34;microsoft yahei&amp;#34; , &amp;#34;helvetica neue&amp;#34; , &amp;#34;helvetica&amp;#34; , &amp;#34;arial&amp;#34; , sans-serif ; font-size: 16px ; background-color: rgb(250 , 250 , 250)&quot;&gt;BeanPostProcessor的after&lt;/span&gt;" style="whiteSpace=wrap;html=1;rounded=0;" vertex="1" parent="1">
          <mxGeometry x="1140" y="-240" width="230" height="60" as="geometry" />
        </mxCell>
        <mxCell id="jY-CzSJwW7g6p9AGMAmo-13" style="edgeStyle=orthogonalEdgeStyle;rounded=0;orthogonalLoop=1;jettySize=auto;html=1;entryX=0;entryY=0.5;entryDx=0;entryDy=0;" edge="1" parent="1" source="jY-CzSJwW7g6p9AGMAmo-10" target="A_nBl0eGspFHgRM14m2u-3">
          <mxGeometry relative="1" as="geometry" />
        </mxCell>
        <mxCell id="jY-CzSJwW7g6p9AGMAmo-10" value="invokeBeanDefinitionRegistryPostProcessors" style="whiteSpace=wrap;html=1;rounded=0;" vertex="1" parent="1">
          <mxGeometry x="1324" y="382.5" width="330" height="60" as="geometry" />
        </mxCell>
      </root>
    </mxGraphModel>
  </diagram>
</mxfile>
